<svg width="32" height="32" viewBox="0 0 32 32" fill="none" xmlns="http://www.w3.org/2000/svg">
<path d="M23 23V26H8.5C7.30653 26 6.16193 25.5259 5.31802 24.682C4.47411 23.8381 4 22.6935 4 21.5C4 20.3065 4.47411 19.1619 5.31802 18.318C6.16193 17.4741 7.30653 17 8.5 17H9V15H8.5C6.77609 15 5.12279 15.6848 3.90381 16.9038C2.68482 18.1228 2 19.7761 2 21.5C2 23.2239 2.68482 24.8772 3.90381 26.0962C5.12279 27.3152 6.77609 28 8.5 28H23V31H31V23H23ZM29 29H25V25H29V29Z" fill="white"/>
<path d="M21 22H19V19H13V22H11V19C11.0005 18.4697 11.2114 17.9613 11.5864 17.5864C11.9613 17.2114 12.4697 17.0005 13 17H19C19.5303 17.0005 20.0387 17.2114 20.4136 17.5864C20.7886 17.9613 20.9995 18.4697 21 19V22ZM16 16C15.4067 16 14.8266 15.8241 14.3333 15.4944C13.8399 15.1648 13.4554 14.6962 13.2284 14.1481C13.0013 13.5999 12.9419 12.9967 13.0576 12.4147C13.1734 11.8328 13.4591 11.2982 13.8787 10.8787C14.2982 10.4591 14.8328 10.1734 15.4147 10.0576C15.9967 9.94189 16.5999 10.0013 17.1481 10.2284C17.6962 10.4554 18.1648 10.8399 18.4944 11.3333C18.8241 11.8266 19 12.4067 19 13C18.9992 13.7954 18.6829 14.558 18.1204 15.1204C17.558 15.6829 16.7954 15.9992 16 16ZM16 12C15.8022 12 15.6089 12.0587 15.4444 12.1685C15.28 12.2784 15.1518 12.4346 15.0761 12.6173C15.0004 12.8 14.9806 13.0011 15.0192 13.1951C15.0578 13.3891 15.153 13.5673 15.2929 13.7071C15.4327 13.847 15.6109 13.9422 15.8049 13.9808C15.9989 14.0194 16.2 13.9996 16.3827 13.9239C16.5654 13.8482 16.7216 13.72 16.8315 13.5556C16.9414 13.3911 17 13.1978 17 13C16.9997 12.7349 16.8943 12.4807 16.7068 12.2932C16.5193 12.1057 16.2651 12.0003 16 12Z" fill="white"/>
<path d="M23.5 4H9V1H1V9H9V6H23.5C24.6935 6 25.8381 6.47411 26.682 7.31802C27.5259 8.16193 28 9.30653 28 10.5C28 11.6935 27.5259 12.8381 26.682 13.682C25.8381 14.5259 24.6935 15 23.5 15H23V17H23.5C25.2239 17 26.8772 16.3152 28.0962 15.0962C29.3152 13.8772 30 12.2239 30 10.5C30 8.77609 29.3152 7.12279 28.0962 5.90381C26.8772 4.68482 25.2239 4 23.5 4V4ZM7 7H3V3H7V7Z" fill="white"/>
</svg>
