<svg width="27" height="27" viewBox="0 0 27 27" fill="none" xmlns="http://www.w3.org/2000/svg">
<path d="M7.36111 17.1471H20.6111C21.4208 17.1471 22.0833 17.8485 22.0833 18.7059C22.0833 19.5632 21.4208 20.2647 20.6111 20.2647H5.88889C5.07917 20.2647 4.41667 19.5632 4.41667 18.7059V3.11765H1.47222C0.6625 3.11765 0 2.41618 0 1.55882C0 0.701471 0.6625 0 1.47222 0H5.88889C6.69861 0 7.36111 0.701471 7.36111 1.55882V4.67647H26.5L20.6111 15.5882H7.36111V17.1471ZM6.625 21.8235C7.84694 21.8235 8.83333 22.8679 8.83333 24.1618C8.83333 25.4556 7.84694 26.5 6.625 26.5C5.40306 26.5 4.41667 25.4556 4.41667 24.1618C4.41667 22.8679 5.40306 21.8235 6.625 21.8235ZM19.875 21.8235C21.0969 21.8235 22.0833 22.8679 22.0833 24.1618C22.0833 25.4556 21.0969 26.5 19.875 26.5C18.6531 26.5 17.6667 25.4556 17.6667 24.1618C17.6667 22.8679 18.6531 21.8235 19.875 21.8235Z" fill="white"/>
</svg>
