<svg width="18" height="18" viewBox="0 0 18 18" fill="none" xmlns="http://www.w3.org/2000/svg">
<path d="M16.1651 3C16.0969 2.99298 16.0282 2.99298 15.9601 3H1.96007C1.87034 3.00139 1.78121 3.01484 1.69507 3.04L8.92007 10.235L16.1651 3Z" fill="#FBB339"/>
<path d="M16.9051 3.695L9.62509 10.945C9.43773 11.1313 9.18427 11.2358 8.92009 11.2358C8.6559 11.2358 8.40245 11.1313 8.21509 10.945L1.00009 3.75C0.977908 3.83152 0.966147 3.91552 0.965088 4V14C0.965088 14.2652 1.07044 14.5196 1.25798 14.7071C1.44552 14.8946 1.69987 15 1.96509 15H15.9651C16.2303 15 16.4847 14.8946 16.6722 14.7071C16.8597 14.5196 16.9651 14.2652 16.9651 14V4C16.9611 3.89583 16.9409 3.79292 16.9051 3.695V3.695ZM2.65009 14H1.95509V13.285L5.59009 9.68L6.29509 10.385L2.65009 14ZM15.9551 14H15.2551L11.6101 10.385L12.3151 9.68L15.9501 13.285L15.9551 14Z" fill="#FBB339"/>
</svg>
