<svg width="18" height="18" viewBox="0 0 18 18" fill="none" xmlns="http://www.w3.org/2000/svg">
<path fill-rule="evenodd" clip-rule="evenodd" d="M16.4895 16.4894C16.9409 16.0366 17.2953 15.4925 17.5265 14.8957C17.748 14.3225 17.9003 13.6689 17.9446 12.7108C17.9889 11.7512 18 11.4438 18 9C18 6.55615 17.9889 6.24877 17.9446 5.28923C17.9003 4.33108 17.748 3.67754 17.5265 3.10431C17.3004 2.50386 16.946 1.95998 16.4881 1.51062C16.0387 1.05272 15.4949 0.698334 14.8945 0.472154C14.3214 0.250615 13.6679 0.0983077 12.7098 0.054C11.7503 0.00969235 11.443 0 8.99931 0C6.55565 0 6.24829 0.00969226 5.28882 0.0553846C4.33074 0.096923 3.67726 0.249231 3.10407 0.472154C2.50397 0.69885 1.96025 1.05317 1.5105 1.51062C1.05309 1.9604 0.698796 2.50416 0.472117 3.10431C0.250596 3.67754 0.0983002 4.33108 0.0539959 5.28923C0.00969161 6.24877 0 6.55615 0 9C0 11.4438 0.00969151 11.7512 0.0553803 12.7108C0.0969156 13.6689 0.249212 14.3225 0.472117 14.8957C0.699177 15.4966 1.05361 16.0394 1.5105 16.4894C1.96046 16.9463 2.50458 17.3008 3.10407 17.5278C3.67726 17.7494 4.33074 17.9017 5.28882 17.946C6.24829 17.9889 6.55565 18 8.99931 18C11.443 18 11.7503 17.9889 12.7098 17.9446C13.6679 17.9031 14.3214 17.7508 14.8945 17.5278C15.4923 17.2965 16.0351 16.9428 16.4881 16.4894H16.4895ZM1.38451 7.94077V10.0592C1.38174 11.196 1.38174 11.4909 1.4122 12.1362C1.4482 12.9475 1.4925 13.5429 1.62818 13.9915C1.75833 14.4235 1.9037 14.8638 2.37997 15.3928C2.85624 15.9231 3.31451 16.1626 3.89878 16.3398C4.48442 16.5157 5.2196 16.5531 5.85786 16.5822C6.58057 16.6154 6.86855 16.6154 8.38597 16.6154H10.0238C11.1896 16.6168 11.4831 16.6182 12.1366 16.5877C12.9465 16.5503 13.5419 16.506 13.9918 16.3717C14.4224 16.2415 14.8627 16.0948 15.3916 15.6198C15.9219 15.1435 16.1614 14.6838 16.3386 14.0995C16.5144 13.5152 16.5532 12.78 16.5823 12.1417C16.6141 11.4189 16.6141 11.1323 16.6141 9.61892V8.38662C16.6141 6.86908 16.6141 6.58246 16.5823 5.85831C16.5532 5.22 16.5144 4.48477 16.3386 3.90046C16.1628 3.31477 15.9232 2.85646 15.3916 2.38015C14.8613 1.90385 14.4224 1.75846 13.9918 1.62831C13.5419 1.494 12.9465 1.44831 12.1366 1.41231C11.4327 1.38338 10.7282 1.37415 10.0238 1.38462H8.38597C6.86855 1.38462 6.58057 1.38462 5.85786 1.41646C5.2196 1.44554 4.48442 1.48431 3.89878 1.66015C3.31451 1.83738 2.85624 2.07692 2.37997 2.60723C1.9037 3.13754 1.75694 3.57646 1.62818 4.00846C1.4925 4.45708 1.4482 5.05246 1.4122 5.86385C1.38174 6.50908 1.38174 6.804 1.38451 7.94077V7.94077ZM8.99931 5.88462C8.17312 5.88462 7.38077 6.21284 6.79657 6.79709C6.21236 7.38134 5.88416 8.17375 5.88416 9C5.88416 9.82625 6.21236 10.6187 6.79657 11.2029C7.38077 11.7872 8.17312 12.1154 8.99931 12.1154C9.8255 12.1154 10.6178 11.7872 11.202 11.2029C11.7863 10.6187 12.1145 9.82625 12.1145 9C12.1145 8.17375 11.7863 7.38134 11.202 6.79709C10.6178 6.21284 9.8255 5.88462 8.99931 5.88462V5.88462ZM4.49965 9C4.49965 7.80653 4.97372 6.66193 5.81757 5.81802C6.66142 4.97411 7.80593 4.5 8.99931 4.5C10.1927 4.5 11.3372 4.97411 12.181 5.81802C13.0249 6.66193 13.499 7.80653 13.499 9C13.499 10.1935 13.0249 11.3381 12.181 12.182C11.3372 13.0259 10.1927 13.5 8.99931 13.5C7.80593 13.5 6.66142 13.0259 5.81757 12.182C4.97372 11.3381 4.49965 10.1935 4.49965 9V9ZM13.8036 5.23385C14.0789 5.23385 14.3431 5.12444 14.5378 4.92969C14.7325 4.73494 14.8419 4.4708 14.8419 4.19539C14.8419 3.91997 14.7325 3.65583 14.5378 3.46108C14.3431 3.26633 14.0789 3.15692 13.8036 3.15692C13.5282 3.15692 13.264 3.26633 13.0693 3.46108C12.8746 3.65583 12.7652 3.91997 12.7652 4.19539C12.7652 4.4708 12.8746 4.73494 13.0693 4.92969C13.264 5.12444 13.5282 5.23385 13.8036 5.23385Z" fill="white"/>
</svg>
