<svg width="12" height="18" viewBox="0 0 12 18" fill="none" xmlns="http://www.w3.org/2000/svg">
<path d="M6 0C4.40928 0.00221173 2.88425 0.747945 1.75944 2.07362C0.634626 3.39929 0.001883 5.19665 6.38338e-06 7.07143C-0.00189883 8.6035 0.422723 10.094 1.20873 11.3143C1.20873 11.3143 1.37237 11.5682 1.3991 11.6049L6 18L10.6031 11.6016C10.6271 11.5676 10.7913 11.3143 10.7913 11.3143L10.7918 11.3124C11.5774 10.0926 12.0019 8.6028 12 7.07143C11.9981 5.19665 11.3654 3.39929 10.2406 2.07362C9.11575 0.747945 7.59072 0.00221173 6 0V0ZM6 9.64286C5.56848 9.64286 5.14665 9.49205 4.78785 9.20949C4.42905 8.92694 4.1494 8.52534 3.98426 8.05547C3.81913 7.5856 3.77592 7.06858 3.86011 6.56977C3.94429 6.07096 4.15209 5.61277 4.45722 5.25315C4.76236 4.89353 5.15112 4.64863 5.57435 4.54941C5.99758 4.45019 6.43627 4.50111 6.83494 4.69574C7.23362 4.89036 7.57437 5.21995 7.81411 5.64282C8.05385 6.06569 8.18182 6.56285 8.18182 7.07143C8.18109 7.75315 7.95099 8.40671 7.54198 8.88876C7.13297 9.37082 6.57843 9.64201 6 9.64286V9.64286Z" fill="#FBB339"/>
</svg>
