<svg width="20" height="20" viewBox="0 0 20 20" fill="none" xmlns="http://www.w3.org/2000/svg">
<path d="M17.1708 5.56117V6.15555C17.1708 12.1409 13.4541 19 6.65297 19C4.64522 19.0053 2.6801 18.2924 1 16.9494C1.29178 16.9978 1.58611 17.0196 1.88054 17.0148C3.54481 17.0204 5.16229 16.3421 6.47297 15.089C5.69979 15.0751 4.94986 14.7638 4.32979 14.1993C3.70971 13.6348 3.25102 12.8459 3.01892 11.9448C3.24923 12.0044 3.48403 12.0343 3.71946 12.0339C4.04821 12.034 4.37547 11.98 4.69243 11.8734C3.85499 11.6695 3.10158 11.1163 2.56113 10.3085C2.02069 9.50075 1.72679 8.48863 1.72973 7.44534V7.3859C2.2421 7.73559 2.81652 7.92736 3.40324 7.94461C2.62224 7.3167 2.06695 6.34811 1.85085 5.23677C1.63475 4.12542 1.77414 2.9552 2.24054 1.96521C3.16986 3.36169 4.32931 4.50358 5.64354 5.31666C6.95776 6.12974 8.39733 6.5958 9.86865 6.68454C9.79582 6.34719 9.76144 5.99917 9.76649 5.65033C9.73909 4.7284 9.94493 3.81856 10.356 3.04469C10.767 2.27082 11.3633 1.67053 12.0636 1.32556C12.7639 0.980584 13.5342 0.907694 14.2696 1.11681C15.005 1.32593 15.6698 1.80689 16.1735 2.4942C17.0014 2.29008 17.7956 1.91843 18.5232 1.39461C18.2473 2.45935 17.6602 3.36277 16.8741 3.93259C17.6085 3.80895 18.3245 3.55673 19 3.18368C18.5104 4.10237 17.8911 4.90739 17.1708 5.56117V5.56117Z" stroke="white" stroke-linecap="round" stroke-linejoin="round"/>
</svg>
